<?xml version="1.0" standalone="no"?>
<!DOCTYPE svg PUBLIC "-//W3C//DTD SVG 20010904//EN"
 "http://www.w3.org/TR/2001/REC-SVG-20010904/DTD/svg10.dtd">
<svg version="1.0" xmlns="http://www.w3.org/2000/svg"
 width="512.000000pt" height="512.000000pt" viewBox="0 0 512.000000 512.000000"
 preserveAspectRatio="xMidYMid meet">
<metadata>
Created by potrace 1.14, written by Peter Selinger 2001-2017
</metadata>
<g transform="translate(0.000000,512.000000) scale(0.100000,-0.100000)"
fill="#000000" stroke="none">
<path d="M953 5105 c-89 -24 -146 -57 -208 -120 -65 -65 -105 -137 -124 -223
-16 -75 -16 -4328 0 -4404 26 -124 120 -248 231 -304 112 -57 29 -54 1718 -54
1402 0 1562 2 1611 16 80 24 126 50 187 107 63 61 97 115 123 198 18 59 19
124 19 1764 0 1161 -3 1713 -10 1732 -14 37 -1245 1271 -1287 1289 -48 21
-2182 20 -2260 -1z m477 -2415 c45 -23 80 -80 80 -130 0 -76 -74 -150 -150
-150 -76 0 -150 74 -150 150 0 48 35 107 78 129 48 26 93 26 142 1z m2096 4
c53 -25 79 -69 79 -134 0 -41 -6 -63 -22 -86 -48 -67 -8 -64 -872 -64 -764 0
-783 0 -821 20 -45 23 -80 80 -80 130 0 48 35 107 78 129 36 20 60 20 820 21
703 0 788 -2 818 -16z m-2096 -604 c45 -23 80 -80 80 -130 0 -76 -74 -150
-150 -150 -76 0 -150 74 -150 150 0 48 35 107 78 129 48 26 93 26 142 1z
m2096 4 c53 -25 79 -69 79 -134 0 -41 -6 -63 -22 -86 -48 -67 -8 -64 -872 -64
-764 0 -783 0 -821 20 -45 23 -80 80 -80 130 0 48 35 107 78 129 36 20 60 20
820 21 703 0 788 -2 818 -16z m-2096 -604 c45 -23 80 -80 80 -130 0 -17 -9
-49 -20 -70 -23 -45 -80 -80 -130 -80 -76 0 -150 74 -150 150 0 48 35 107 78
129 48 26 93 26 142 1z m2096 4 c53 -25 79 -69 79 -134 0 -41 -6 -63 -22 -86
-48 -67 -8 -64 -872 -64 -764 0 -783 0 -821 20 -45 23 -80 80 -80 130 0 48 35
107 78 129 36 20 60 20 820 21 703 0 788 -2 818 -16z"/>
</g>
</svg>
